<svg width="23" height="23" viewBox="0 0 23 23" fill="none" xmlns="http://www.w3.org/2000/svg">
<path d="M21.3864 15.3417C21.319 15.2639 21.2356 15.2015 21.142 15.1588C21.0484 15.116 20.9467 15.0938 20.8438 15.0938H19.4063V13.6562C19.4063 12.8642 18.7615 12.2188 17.9688 12.2188H15.0938C14.301 12.2188 13.6563 12.8642 13.6563 13.6562V15.0938H12.2188C12.1157 15.0937 12.0139 15.1159 11.9202 15.1586C11.8265 15.2014 11.743 15.2639 11.6756 15.3417C11.6081 15.4195 11.5581 15.511 11.5291 15.6098C11.5 15.7087 11.4926 15.8126 11.5072 15.9146L12.2259 20.9458C12.2505 21.117 12.336 21.2736 12.4667 21.3869C12.5974 21.5002 12.7645 21.5625 12.9375 21.5625H20.125C20.298 21.5625 20.4651 21.5002 20.5958 21.3869C20.7265 21.2736 20.812 21.117 20.8366 20.9458L21.5553 15.9146C21.5699 15.8126 21.5623 15.7086 21.5332 15.6098C21.504 15.5109 21.454 15.4195 21.3864 15.3417ZM15.0938 13.6562H17.9688V15.0938H15.0938V13.6562ZM19.5018 20.125H13.5607L13.0475 16.5312H20.015L19.5018 20.125ZM7.1875 14.375H8.625V21.5625H7.1875V14.375Z" fill="white"/>
<path d="M12.0606 12.8477L10.6907 11.1342L9.65425 8.54306C9.49502 8.14228 9.21889 7.79868 8.86178 7.55692C8.50466 7.31517 8.08306 7.18645 7.65181 7.1875H3.59375C2.40494 7.1875 1.4375 8.15494 1.4375 9.34375V14.375C1.4375 15.1678 2.08222 15.8125 2.875 15.8125H3.59375V21.5625H5.03125V14.375H2.875V9.34375C2.875 9.15313 2.95073 8.97031 3.08552 8.83552C3.22031 8.70073 3.40313 8.625 3.59375 8.625H7.65181C7.94722 8.625 8.20956 8.80253 8.31881 9.07709L9.50116 11.9492L10.9387 13.7461L12.0606 12.8477ZM2.875 3.59375C2.875 2.00819 4.16444 0.71875 5.75 0.71875C7.33556 0.71875 8.625 2.00819 8.625 3.59375C8.625 5.17931 7.33556 6.46875 5.75 6.46875C4.16444 6.46875 2.875 5.17931 2.875 3.59375ZM4.3125 3.59375C4.3125 4.38653 4.95722 5.03125 5.75 5.03125C6.54278 5.03125 7.1875 4.38653 7.1875 3.59375C7.1875 2.80097 6.54278 2.15625 5.75 2.15625C4.95722 2.15625 4.3125 2.80097 4.3125 3.59375Z" fill="white"/>
</svg>
