<svg width="17" height="18" viewBox="0 0 17 18" fill="none" xmlns="http://www.w3.org/2000/svg">
<path d="M10.9858 17.48H10.9293C10.7222 17.4675 10.5251 17.3869 10.3685 17.2508C10.2119 17.1147 10.1048 16.9306 10.0636 16.7273L8.61458 9.60426C8.5777 9.42343 8.48846 9.25744 8.35796 9.12694C8.22746 8.99644 8.06147 8.9072 7.88064 8.87032L0.757652 7.42126C0.553908 7.38079 0.369281 7.27405 0.232559 7.11766C0.0958365 6.96128 0.0147048 6.76405 0.00181424 6.55673C-0.0110763 6.3494 0.0449991 6.14364 0.161296 5.97153C0.277594 5.79941 0.447576 5.67062 0.644738 5.60523L15.6999 0.589963C15.8689 0.520185 16.0546 0.501151 16.2342 0.535187C16.4139 0.569224 16.5797 0.654856 16.7114 0.781618C16.8432 0.908379 16.9352 1.07078 16.9761 1.24897C17.017 1.42715 17.0052 1.61341 16.942 1.78497L11.9267 16.8402C11.8613 17.0349 11.7338 17.2029 11.5639 17.3184C11.394 17.434 11.191 17.4907 10.9858 17.48Z" fill="white"/>
</svg>
