<svg width="100" height="100" viewBox="0 0 100 100" fill="none" xmlns="http://www.w3.org/2000/svg">
<path fill-rule="evenodd" clip-rule="evenodd" d="M100 50C100 77.6142 77.6142 100 50 100C22.3858 100 0 77.6142 0 50C0 22.3858 22.3858 0 50 0C77.6142 0 100 22.3858 100 50ZM21.6875 52.7188C21.1458 53.0729 20.7292 53.0625 20.4375 52.6875C20.1458 52.3125 20.2396 51.9167 20.7188 51.5C24.3021 48.1875 27.5104 46.0729 30.3438 45.1562C33.1771 44.2396 36.9062 45.25 41.5312 48.1875C45.3283 50.6161 48.7241 51.7697 51.7188 51.6482V55.3091C51.0876 55.6048 50.4418 55.8664 49.7812 56.0938C45.3021 57.6562 39.6042 56.5833 32.6875 52.875C30.9375 51.9375 29.1458 51.2812 27.3125 50.9062C25.5 50.5312 23.625 51.1354 21.6875 52.7188ZM59.1484 49.4722V77.875C59.1484 78.1875 59.1953 78.5312 59.2891 78.9062C59.3984 79.2812 59.5938 79.6328 59.875 79.9609C60.1719 80.2891 60.5859 80.5703 61.1172 80.8047C61.6641 81.0234 62.3828 81.1328 63.2734 81.1328V82H47.5938V81.1328C48.4219 81.1328 49.1016 81.0547 49.6328 80.8984C50.1641 80.7266 50.5859 80.5 50.8984 80.2188C51.2109 79.9219 51.4219 79.5859 51.5312 79.2109C51.6562 78.8359 51.7188 78.4375 51.7188 78.0156V55.3091C54.4765 54.0166 56.953 52.071 59.1484 49.4722ZM59.1484 49.4722V46.4385C59.2261 46.2753 59.3016 46.1083 59.375 45.9375C61.875 40.0417 61.1354 34.1979 57.1562 28.4062C53.1979 22.6146 47.9167 18.9375 41.3125 17.375C36.7292 16.2917 32.1458 16.6875 27.5625 18.5625C22.9792 20.4375 20.2812 23.2292 19.4688 26.9375C18.4688 31.3958 19.4167 34.6354 22.3125 36.6562C25.2292 38.6771 28.2292 39.3021 31.3125 38.5312C31.7083 38.4271 32.1042 38.2812 32.5 38.0938C33.0625 37.8438 33.4583 37.9271 33.6875 38.3438C33.9375 38.7604 33.7708 39.125 33.1875 39.4375C32.3958 39.7708 31.8854 39.9688 31.6562 40.0312C28.6979 40.9688 25.4271 40.4583 21.8438 38.5C18.2604 36.5417 16.4688 32.7188 16.4688 27.0312C16.4688 23.8854 17.4583 21.0312 19.4375 18.4688C21.4167 15.8854 23.9479 13.8229 27.0312 12.2812C30.1146 10.7188 33.5 9.82292 37.1875 9.59375C40.8958 9.34375 44.5312 9.77083 48.0938 10.875C51.9479 12.3333 55.1771 14.4375 57.7812 17.1875C60.4062 19.9375 62.3125 22.9896 63.5 26.3438C64.6875 29.6979 65.1042 33.1667 64.75 36.75C64.4167 40.3333 63.2292 43.6667 61.1875 46.75C60.5371 47.7255 59.8575 48.633 59.1484 49.4722ZM59.1484 46.4385C57.6819 49.5192 55.4449 51.2376 52.4375 51.5938C52.2005 51.6203 51.961 51.6384 51.7188 51.6482V42.7891C51.7188 42.4766 51.6562 42.1406 51.5312 41.7812C51.4219 41.4219 51.2109 41.0938 50.8984 40.7969C50.6016 40.4844 50.1875 40.2266 49.6562 40.0234C49.125 39.8203 48.4375 39.7188 47.5938 39.7188V38.8516H59.1484V46.4385ZM39.625 45.4062C39.0417 45.6979 38.6354 45.6562 38.4062 45.2812C38.1771 44.8854 38.2917 44.5208 38.75 44.1875C41.1458 42.5625 41.5729 40.875 40.0312 39.125C38.5104 37.375 37.1042 35.9375 35.8125 34.8125C31.5417 31.1667 30.1458 28 31.625 25.3125C33.1042 22.625 35.4792 20.375 38.75 18.5625C39.3333 18.2708 39.7396 18.3333 39.9688 18.75C40.2188 19.1458 40.0833 19.5104 39.5625 19.8438C36.4583 21.7812 37.0833 24.5729 41.4375 28.2188C45.375 31.5104 47.1146 34.6146 46.6562 37.5312C46.1979 40.4479 43.8542 43.0729 39.625 45.4062ZM81.8594 82.8906C83.0938 82.6875 84.4219 82.2969 85.8438 81.7188L85.5156 80.6641C85.0625 80.8516 84.6406 80.9688 84.25 81.0156C83.8594 81.0625 83.5547 81.0859 83.3359 81.0859C82.5078 81.0859 81.5625 80.6562 80.5 79.7969C79.4531 78.9219 78.2734 77.7578 76.9609 76.3047C75.6641 74.8516 74.2344 73.1719 72.6719 71.2656C71.125 69.3594 69.4375 67.3672 67.6094 65.2891C69.0312 64.5078 70.4297 63.5781 71.8047 62.5C73.1953 61.4219 74.4844 60.1797 75.6719 58.7734C76.875 57.3672 77.9375 55.8047 78.8594 54.0859C79.7969 52.3516 80.5234 50.4531 81.0391 48.3906H68.1719V49.2578C68.9375 49.2578 69.5859 49.3516 70.1172 49.5391C70.6641 49.7109 71.1016 49.9375 71.4297 50.2188C71.7734 50.5 72.0156 50.8047 72.1562 51.1328C72.3125 51.4609 72.3906 51.7656 72.3906 52.0469C72.3906 52.1406 72.3828 52.2266 72.3672 52.3047C72.3516 52.3828 72.3281 52.4609 72.2969 52.5391C71.9531 53.4922 71.5156 54.4375 70.9844 55.375C70.4531 56.2969 69.8672 57.1953 69.2266 58.0703C68.6016 58.9297 67.9375 59.7578 67.2344 60.5547C66.5469 61.3359 65.8672 62.0625 65.1953 62.7344C63.6172 64.3281 61.9375 65.8203 60.1562 67.2109C60.8438 68.1328 61.5781 69.1719 62.3594 70.3281C63.1562 71.4844 64 72.6562 64.8906 73.8438C65.7969 75.0156 66.75 76.1641 67.75 77.2891C68.7656 78.4141 69.8359 79.4141 70.9609 80.2891C72.1016 81.1641 73.3047 81.8672 74.5703 82.3984C75.8359 82.9297 77.1641 83.1953 78.5547 83.1953C79.5391 83.1953 80.6406 83.0938 81.8594 82.8906Z" fill="#fffff"/>
</svg>
