<svg width="22" height="22" viewBox="0 0 22 22" fill="none" xmlns="http://www.w3.org/2000/svg">
<path d="M3.6667 16.5V6.50834L2.24586 3.43751C2.13892 3.20834 2.13128 2.9752 2.22295 2.73809C2.31461 2.50098 2.47503 2.32926 2.7042 2.22293C2.93336 2.11659 3.1665 2.10529 3.40361 2.18901C3.64072 2.27273 3.81245 2.42918 3.91878 2.65834L5.68336 6.46251H16.3167L18.0813 2.65834C18.1882 2.42918 18.3603 2.26876 18.5974 2.17709C18.8345 2.08543 19.0673 2.1007 19.2959 2.22293C19.525 2.32987 19.6854 2.5019 19.7771 2.73901C19.8688 2.97612 19.8611 3.20895 19.7542 3.43751L18.3334 6.50834V16.5C18.3334 17.0042 18.154 17.4359 17.7953 17.7953C17.4366 18.1546 17.0048 18.334 16.5 18.3333H5.50003C4.99586 18.3333 4.56442 18.154 4.2057 17.7953C3.84697 17.4365 3.66731 17.0048 3.6667 16.5ZM9.1667 11.9167H12.8334C13.0931 11.9167 13.3109 11.8287 13.4869 11.6527C13.6629 11.4767 13.7506 11.2591 13.75 11C13.7494 10.7409 13.6614 10.5233 13.486 10.3473C13.3106 10.1713 13.0931 10.0833 12.8334 10.0833H9.1667C8.90697 10.0833 8.68942 10.1713 8.51403 10.3473C8.33864 10.5233 8.25064 10.7409 8.25003 11C8.24942 11.2591 8.33742 11.477 8.51403 11.6536C8.69064 11.8302 8.9082 11.9179 9.1667 11.9167Z" fill="#16249A"/>
</svg>
